<svg version="1.0" xmlns="http://www.w3.org/2000/svg"
 width="2400.000000pt" height="1800.000000pt" viewBox="0 0 2400.000000 1800.000000"
 preserveAspectRatio="xMidYMid meet">

<g transform="translate(0.000000,1800.000000) scale(0.100000,-0.100000)"
fill="#F7F7F7" stroke="none">
<path d="M0 9000 l0 -9000 12000 0 12000 0 0 9000 0 9000 -12000 0 -12000 0 0
-9000z m12705 4020 c187 -14 350 -36 525 -71 146 -29 399 -94 409 -106 3 -3
-7 -3 -22 1 -22 5 -28 4 -24 -6 2 -7 10 -12 16 -11 6 2 11 -1 11 -6 0 -5 -10
-11 -22 -13 -13 -2 13 -8 57 -12 44 -5 97 -15 119 -22 45 -16 46 -16 46 -6 0
5 -12 13 -27 20 -81 34 36 -5 152 -51 240 -95 556 -262 780 -413 341 -229 741
-616 943 -910 32 -47 33 -47 4 -14 -36 41 -46 35 -47 -25 0 -24 -3 -46 -7 -50
-4 -4 -5 -19 -2 -34 4 -18 -1 -35 -14 -51 -16 -19 -18 -30 -10 -49 7 -20 5
-28 -7 -38 -9 -6 -24 -9 -32 -6 -13 5 -13 2 2 -20 l17 -27 -31 -6 c-25 -5 -31
-11 -31 -33 1 -59 -11 -91 -35 -91 -18 0 -21 -4 -17 -25 2 -14 9 -25 14 -25 5
0 8 -6 5 -12 -2 -7 4 -24 14 -37 11 -13 19 -29 19 -36 0 -7 17 -16 38 -20 20
-5 44 -10 52 -12 8 -3 23 -5 32 -7 10 -1 20 -5 24 -8 3 -4 12 -4 19 -2 6 3 37
-6 68 -20 31 -15 60 -26 65 -26 5 0 30 -19 55 -42 49 -46 69 -94 46 -109 -10
-6 -10 -9 -2 -9 19 0 4 -31 -32 -66 -21 -21 -46 -34 -76 -39 -24 -4 -48 -14
-54 -22 -6 -8 -22 -14 -36 -14 -69 4 -131 2 -136 -2 -3 -3 -7 -22 -9 -43 -3
-38 -30 -78 -45 -68 -5 3 -9 -1 -9 -10 0 -8 -6 -17 -12 -19 -10 -4 -10 -8 -1
-14 15 -11 11 -92 -6 -102 -10 -7 -10 -10 -1 -16 9 -6 9 -10 -1 -16 -11 -7
-11 -9 2 -9 10 0 16 -9 16 -28 0 -34 33 -112 47 -112 6 0 5 -4 -3 -9 -11 -7
-7 -17 18 -48 17 -21 41 -59 54 -83 12 -24 26 -44 31 -44 5 -1 26 -17 46 -36
43 -40 83 -119 74 -144 -9 -23 22 -66 49 -66 25 0 49 -13 47 -26 -2 -15 85
-33 245 -49 138 -14 316 -35 435 -51 73 -10 169 -46 175 -65 4 -11 11 -19 16
-19 5 0 9 -7 9 -15 0 -9 7 -27 16 -41 14 -20 15 -30 6 -49 -7 -14 -19 -25 -27
-25 -9 0 -41 -9 -73 -19 -61 -21 -125 -29 -506 -62 -139 -12 -244 -26 -251
-33 -16 -16 -29 -64 -38 -144 -3 -27 1 -36 25 -53 15 -11 28 -17 28 -13 0 3 6
2 13 -4 6 -5 43 -9 80 -8 37 1 73 -2 80 -6 9 -6 9 -8 0 -8 -7 0 -17 -8 -22
-19 -10 -17 -6 -19 60 -17 38 0 73 -4 77 -9 7 -10 10 -11 62 -13 22 -2 28 -6
24 -17 -5 -11 1 -15 20 -15 14 0 25 -5 23 -12 -2 -12 103 -36 166 -37 25 -1
37 -6 37 -15 0 -8 20 -22 45 -32 31 -11 47 -24 51 -39 3 -12 16 -28 30 -35 28
-16 31 -30 7 -31 -11 0 -13 -3 -5 -6 7 -3 12 -24 12 -55 0 -40 3 -49 15 -44
17 6 20 -11 5 -34 -6 -9 -5 -17 2 -21 9 -6 8 -12 -1 -23 -10 -11 -14 -57 -15
-152 -2 -109 -5 -139 -17 -148 -9 -6 -14 -17 -12 -23 3 -7 0 -13 -6 -13 -6 0
-15 -18 -21 -40 -6 -22 -14 -39 -18 -39 -14 2 -52 -14 -52 -21 0 -5 48 -39
108 -76 274 -171 551 -379 1016 -762 168 -138 213 -167 253 -159 21 4 40 -13
139 -128 109 -127 135 -163 97 -134 -10 7 14 -20 52 -60 39 -41 63 -70 54 -65
-8 5 -133 110 -277 233 -733 627 -1168 949 -1554 1149 l-97 50 -15 -51 c-56
-197 -60 -209 -66 -191 -5 13 -9 14 -14 5 -4 -6 -30 -29 -56 -50 -27 -21 -46
-41 -43 -45 4 -3 0 -6 -8 -6 -8 0 -25 -12 -39 -27 -14 -14 -38 -32 -55 -39
-16 -7 -38 -22 -47 -33 -11 -13 -30 -21 -47 -21 -19 0 -36 -8 -48 -24 -14 -17
-33 -25 -78 -31 l-60 -8 35 -13 35 -13 -48 5 c-26 2 -56 0 -67 -6 -10 -5 -40
-12 -67 -15 -26 -4 -52 -10 -57 -16 -6 -5 -35 -9 -65 -9 -40 0 -63 -6 -81 -20
-14 -11 -30 -20 -36 -20 -5 0 -20 -9 -32 -21 -20 -18 -29 -19 -65 -11 -24 5
-52 5 -62 2 -15 -6 -8 -9 28 -15 36 -6 45 -10 37 -20 -5 -6 -7 -15 -3 -18 9
-9 -11 -9 -84 3 -51 8 -72 7 -110 -5 -27 -9 -51 -16 -55 -15 -12 0 -45 -34
-41 -42 2 -5 -1 -8 -7 -8 -6 0 -9 -4 -6 -8 2 -4 1 -14 -3 -21 -14 -23 -49 7
-43 37 5 25 5 25 -14 6 -11 -11 -32 -40 -47 -66 -23 -40 -25 -47 -10 -46 36 3
91 -13 97 -27 11 -30 77 -15 69 16 -4 16 0 19 26 19 17 0 31 5 31 10 0 6 -9
10 -19 10 -27 0 -34 15 -19 40 17 27 32 26 17 -2 -7 -15 0 -10 20 12 20 22 28
27 21 13 -13 -27 -13 -36 0 -28 6 3 10 -1 10 -9 0 -9 8 -16 18 -16 15 -1 15
-2 -2 -15 -11 -8 -17 -15 -13 -15 4 0 2 -12 -3 -26 -10 -24 -9 -25 23 -23 18
2 38 0 45 -5 7 -4 19 -5 27 -2 8 3 15 2 15 -3 0 -9 88 -32 200 -52 36 -6 86
-20 112 -31 42 -18 47 -23 46 -51 -1 -36 -35 -108 -70 -148 -21 -23 -112 -57
-196 -74 -12 -2 -26 -6 -31 -9 -5 -3 -44 -8 -87 -10 -44 -3 -98 -12 -122 -20
-27 -10 -42 -11 -42 -4 0 7 -29 8 -92 4 -103 -8 -128 -13 -128 -27 0 -5 -27
-9 -60 -9 -44 0 -60 4 -60 14 0 9 -13 13 -45 12 -32 0 -45 -4 -45 -15 0 -11
-10 -12 -44 -8 l-44 6 -63 -70 c-45 -51 -59 -73 -51 -81 8 -8 16 -7 28 3 15
12 17 12 9 0 -6 -10 -4 -13 6 -9 12 5 15 -5 13 -52 0 -31 -4 -62 -8 -68 -9
-15 15 -21 43 -10 21 8 22 7 11 -7 -12 -14 -10 -16 16 -11 16 4 23 3 16 0 -20
-9 6 -34 36 -34 14 0 23 -3 19 -6 -3 -3 2 -14 11 -23 20 -20 98 -40 165 -43
34 -1 47 -5 47 -16 0 -9 7 -13 20 -9 12 3 20 0 20 -8 0 -13 42 -25 86 -25 13
0 24 -4 24 -9 0 -4 26 -11 57 -14 32 -3 59 -11 61 -17 2 -5 22 -10 45 -10 24
0 48 -7 59 -17 17 -16 20 -15 51 13 19 16 -17 -20 -78 -81 -532 -525 -1316
-920 -2087 -1049 -265 -45 -341 -51 -668 -51 -341 0 -427 5 -625 35 -780 120
-1475 446 -2074 974 -116 102 -216 204 -161 164 555 -402 1053 -606 1725 -705
172 -25 715 -25 895 1 332 47 587 113 875 228 773 307 1412 870 1818 1602 482
868 575 1940 250 2891 -418 1223 -1477 2133 -2757 2370 -387 71 -848 73 -1241
5 -540 -93 -1098 -333 -1528 -657 -33 -25 -61 -42 -63 -40 -3 2 55 59 128 125
520 474 1086 781 1750 951 228 58 426 89 733 114 95 8 391 6 520 -3z m5455
-1753 c-332 -326 -1051 -899 -1417 -1130 -133 -83 -340 -190 -353 -182 -22 13
-6 27 79 70 370 185 896 580 1691 1268 80 70 147 126 150 126 3 0 -65 -68
-150 -152z m-8443 -695 c87 -43 476 -231 865 -418 390 -186 708 -341 708 -344
0 -3 -166 -68 -369 -145 -203 -77 -368 -141 -367 -142 0 -1 312 -4 691 -6
l690 -5 560 -126 c308 -69 747 -168 975 -220 228 -52 495 -111 592 -132 97
-21 176 -40 174 -41 -1 -1 -134 -31 -296 -67 -377 -83 -1162 -261 -1625 -368
l-360 -83 -704 -5 -704 -5 369 -139 c203 -76 373 -141 378 -144 5 -3 -20 -20
-55 -37 -172 -87 -1682 -806 -1685 -802 -2 2 213 365 477 808 264 442 485 811
490 821 7 12 -26 4 -134 -33 -247 -85 -487 -136 -745 -160 -119 -11 -1027 -7
-1063 5 -8 3 -108 7 -224 11 -219 6 -646 28 -895 45 -446 31 -519 37 -865 70
-217 21 -255 26 -540 60 -686 84 -1200 197 -1417 312 -292 155 -81 313 587
442 611 117 1784 228 2755 260 l155 5 -245 -24 c-842 -81 -1517 -163 -1985
-241 -408 -67 -680 -138 -693 -181 -5 -16 59 -47 138 -66 468 -115 1802 -209
3365 -237 314 -5 661 -15 773 -20 310 -16 594 -70 872 -165 192 -66 178 -63
159 -34 -16 24 -247 411 -723 1207 -135 227 -246 414 -246 417 0 9 6 6 167
-73z m5963 -708 c0 -2 -7 -4 -15 -4 -8 0 -15 4 -15 10 0 5 7 7 15 4 8 -4 15
-8 15 -10z m14 -30 c9 -24 7 -28 -9 -14 -17 14 -20 30 -6 30 5 0 12 -7 15 -16z
m-1210 -3299 c-4 -8 -11 -15 -16 -15 -6 0 -5 6 2 15 7 8 14 15 16 15 2 0 1 -7
-2 -15z"/>
<path d="M15036 7315 c-3 -9 0 -15 9 -15 16 0 20 16 6 24 -5 3 -11 -1 -15 -9z"/>
</g>
</svg>
